PathFileType	4	(X/Y/Z)	s09c0001.trc
DataRate	CameraRate	NumFrames	NumMarkers	Units	OrigDataRate	OrigDataStartFrame	OrigNumFrames
200	200	4	49	mm	200	1250	2000
Frame#	Time	racr			lacr			c7			jug			rlel			rdr			llel			ldr			s2			lic			ric			lasi			rasi			rpsi			lpsi			rgt			lgt			rth1			rth2			rth3			rth4			rlfc			rmfc			rsh1			rsh2			rsh3			rsh4			rlmal			rmmal			rcal			rtoe			rmt5			rmt1			lth1			lth2			lth4			lth3			llfc			lmfc			llmal			lmmal			lcal			lmt1			lmt5			lsh1			lsh2			lsh3			lsh4			ltoe			
		X1	Y1	Z1	X2	Y2	Z2	X3	Y3	Z3	X4	Y4	Z4	X5	Y5	Z5	X6	Y6	Z6	X7	Y7	Z7	X8	Y8	Z8	X9	Y9	Z9	X10	Y10	Z10	X11	Y11	Z11	X12	Y12	Z12	X13	Y13	Z13	X14	Y14	Z14	X15	Y15	Z15	X16	Y16	Z16	X17	Y17	Z17	X18	Y18	Z18	X19	Y19	Z19	X20	Y20	Z20	X21	Y21	Z21	X22	Y22	Z22	X23	Y23	Z23	X24	Y24	Z24	X25	Y25	Z25	X26	Y26	Z26	X27	Y27	Z27	X28	Y28	Z28	X29	Y29	Z29	X30	Y30	Z30	X31	Y31	Z31	X32	Y32	Z32	X33	Y33	Z33	X34	Y34	Z34	X35	Y35	Z35	X36	Y36	Z36	X37	Y37	Z37	X38	Y38	Z38	X39	Y39	Z39	X40	Y40	Z40	X41	Y41	Z41	X42	Y42	Z42	X43	Y43	Z43	X44	Y44	Z44	X45	Y45	Z45	X46	Y46	Z46	X47	Y47	Z47	X48	Y48	Z48	X49	Y49	Z49	
1250	6.2500	279.393524	1352.809937	380.572083	280.624786	1334.675781	-12.079321	227.574890	1401.792603	181.054703	350.890900	1350.799316	180.063248	294.980957	1092.614136	447.178894	360.718781	879.066040	577.144714	272.730835	1050.406738	-46.742451	398.302368	896.205688	-195.049911	220.581024	941.010376	184.403931	350.534943	990.763000	47.745850	338.383545	1002.648438	337.605652	408.286743	955.145386	79.045547	398.582001	966.216003	318.899261	223.846924	978.318726	243.900543	224.478043	974.281616	133.514099	324.699402	846.898682	385.755676	329.228699	836.771118	10.495623	348.053040	716.409119	381.605621	363.807587	630.943970	368.092346	332.019501	548.422852	358.529022	394.434509	629.484436	348.331055	318.717377	451.007324	334.832092	301.466370	431.028992	236.821930	277.967743	361.133789	367.953186	302.123413	274.068878	359.623383	279.141357	189.279648	361.207306	327.827820	276.916748	329.626526	276.782654	86.745010	360.322968	286.099487	93.479576	283.758667	219.180527	32.027809	318.050964	471.928070	86.084488	354.343811	388.186096	49.249409	407.101501	400.995789	39.282318	297.137543	339.814758	710.666443	9.038149	354.924927	628.992859	26.045982	390.636261	626.985291	39.872570	326.365051	543.753845	34.658810	308.492706	449.206360	46.953274	317.279205	429.036682	140.083115	268.575226	84.951004	21.756138	291.183289	96.194664	92.448608	218.711517	26.704115	68.093292	406.278717	43.995003	87.235146	381.417999	33.826351	-18.401518	277.767700	355.132782	17.451229	295.719391	270.477081	21.381071	274.239014	198.343277	14.920510	322.872314	270.764740	50.449718	472.486938	79.182129	36.422928	
1251	6.2550	279.371826	1352.812744	380.582336	280.627594	1334.647095	-12.086185	227.573746	1401.781006	181.020020	350.884064	1350.793945	180.041611	294.960480	1092.618896	447.177002	360.705627	879.061340	577.140686	272.714203	1050.395142	-46.738441	398.294312	896.205383	-195.043930	220.592484	941.035278	184.401901	350.530518	990.752625	47.737473	338.344635	1002.647156	337.584351	408.279968	955.151794	79.035629	398.571869	966.212158	318.893036	223.852585	978.290161	243.894974	224.457565	974.280212	133.503372	324.707458	846.906555	385.754883	329.203186	836.758789	10.504071	348.046295	716.416565	381.599762	363.807434	630.948547	368.086334	332.016907	548.419922	358.517883	394.450531	629.485291	348.316650	318.715729	451.011383	334.843597	301.449921	431.015808	236.810257	277.966217	361.138245	367.946533	302.129242	274.050018	359.610016	279.148682	189.284103	361.208008	327.837280	276.898743	329.593903	276.778748	86.727974	360.326843	286.115814	93.464714	283.750763	219.180695	32.026775	318.050903	471.923462	86.090225	354.332489	388.186340	49.260460	407.101074	401.022034	39.279129	297.143158	339.813904	710.659973	9.025970	354.910492	629.003540	26.022308	390.624695	627.001770	39.849800	326.354919	543.757874	34.665920	308.507416	449.211273	46.953213	317.259521	429.023621	140.071472	268.589264	84.948067	21.765413	291.178558	96.190941	92.450653	218.691605	26.725521	68.114296	406.259277	44.010704	87.231369	381.463196	33.853214	-18.406162	277.755493	355.131073	17.427116	295.743073	270.514801	21.346310	274.308075	198.351105	14.837119	322.875702	270.771576	50.444836	472.504883	79.185593	36.395184	
1252	6.2600	279.357361	1352.816040	380.573120	280.608307	1334.641968	-12.100693	227.535004	1401.775391	181.039124	350.853363	1350.792847	180.033127	294.946136	1092.628296	447.189392	360.703125	879.055664	577.139282	272.691711	1050.401123	-46.749191	398.293579	896.207520	-195.040344	220.563736	941.011597	184.405258	350.511658	990.757446	47.738857	338.341766	1002.647217	337.581848	408.256805	955.158752	79.023460	398.566528	966.205750	318.887421	223.831665	978.297668	243.877457	224.457703	974.280334	133.510818	324.696075	846.903320	385.758118	329.198792	836.762817	10.475965	348.058105	716.409302	381.598328	363.806488	630.951782	368.083710	332.028473	548.424805	358.524475	394.427216	629.487549	348.308228	318.721436	450.998535	334.833679	301.446960	431.016266	236.807358	277.963776	361.132385	367.953064	302.126404	274.076263	359.610535	279.144501	189.284958	361.202942	327.800232	276.886353	329.600159	276.788452	86.748726	360.329468	286.122406	93.474770	283.765656	219.184586	32.004818	318.052246	471.928070	86.093765	354.339722	388.174194	49.257275	407.096100	401.010406	39.279369	297.147797	339.802307	710.660461	9.020661	354.901764	628.997803	26.022160	390.640320	626.991028	39.845184	326.338043	543.758423	34.643044	308.479889	449.193024	46.938419	317.271057	429.021942	140.073151	268.570465	84.949890	21.759027	291.191711	96.173897	92.447136	218.711807	26.704887	68.093010	406.279175	43.995396	87.235085	381.463196	33.853210	-18.406151	277.751404	355.142731	17.423157	295.708649	270.512390	21.343266	274.258911	198.361984	14.878185	322.872040	270.788757	50.443264	472.493561	79.161789	36.387939	
1253	6.2650	279.350464	1352.804565	380.566315	280.578003	1334.639893	-12.121983	227.508850	1401.785034	181.017517	350.833221	1350.801392	180.019958	294.948853	1092.617432	447.190399	360.684723	879.060120	577.148315	272.684113	1050.391235	-46.745586	398.298309	896.205383	-195.039078	220.559860	941.010559	184.385666	350.492065	990.753174	47.726738	338.317230	1002.648621	337.569092	408.240662	955.157349	79.023483	398.560028	966.208069	318.859985	223.828949	978.277527	243.881470	224.442932	974.266724	133.513092	324.683563	846.898804	385.738861	329.195465	836.770874	10.464553	348.047760	716.415588	381.598602	363.797302	630.948364	368.073212	332.026978	548.428162	358.517792	394.439148	629.480896	348.297852	318.719757	450.997559	334.812958	301.442993	431.009247	236.799713	277.956604	361.136902	367.947845	302.130798	274.060791	359.614471	279.130127	189.298355	361.209137	327.839569	276.904572	329.597229	276.778748	86.733620	360.323242	286.112488	93.467697	283.769165	219.145538	32.036095	318.052948	471.910706	86.086548	354.327942	388.183197	49.244183	407.092041	401.011139	39.275890	297.146790	339.801880	710.671143	9.011548	354.901978	629.011780	25.996494	390.612671	626.994080	39.824879	326.331360	543.755005	34.645260	308.463226	449.119598	47.029472	317.266541	429.028839	140.067047	268.591736	84.943138	21.765600	291.190216	96.176041	92.442146	218.690781	26.717386	68.097404	406.277863	44.012310	87.232620	381.467010	33.819633	-18.405636	277.756622	355.130035	17.432116	295.692841	270.484131	21.355265	274.208588	198.346878	14.878488	322.840027	270.755859	50.437511	472.503143	79.164818	36.390324	
